<svg width="328" height="104" viewBox="0 0 328 104" fill="none" xmlns="http://www.w3.org/2000/svg">
<mask id="mask0_4409_11367" style="mask-type:alpha" maskUnits="userSpaceOnUse" x="0" y="0" width="328" height="104">
<rect x="0.5" y="0.5" width="327" height="103" rx="7.5" fill="#005CAF" stroke="#3B84C6"/>
</mask>
<g mask="url(#mask0_4409_11367)">
<path d="M-95.2975 252.246L181.093 252.246C208.176 252.246 222.449 220.214 204.318 200.143L66.1338 47.0653C63.2021 43.8177 59.6198 41.2212 55.6189 39.444C51.6181 37.6668 47.288 36.7484 42.9091 36.7484C38.5302 36.7484 34.2001 37.6668 30.1993 39.444C26.1984 41.2212 22.6161 43.8177 19.6844 47.0653L-118.504 200.143C-136.653 220.214 -122.376 252.246 -95.2975 252.246Z" stroke="#00498A" stroke-width="0.5" stroke-miterlimit="10"/>
<path d="M-70.2925 234.197L156.081 234.197C178.266 234.197 189.979 207.958 175.108 191.508L61.9194 66.1256C59.518 63.4657 56.5837 61.339 53.3067 59.8834C50.0297 58.4277 46.483 57.6755 42.8963 57.6755C39.3096 57.6755 35.7629 58.4277 32.4858 59.8834C29.2088 61.339 26.2746 63.4657 23.8731 66.1256L-89.3157 191.508C-104.164 207.958 -92.4735 234.197 -70.2925 234.197Z" stroke="#00498A" stroke-width="0.5" stroke-miterlimit="10"/>
<path d="M-45.2871 216.148L131.091 216.148C148.37 216.148 157.482 195.703 145.912 182.887L57.7233 85.1991C55.8525 83.1262 53.5665 81.4688 51.0132 80.3344C48.4599 79.1999 45.6964 78.6137 42.9018 78.6137C40.1071 78.6137 37.3436 79.1999 34.7903 80.3344C32.237 81.4688 29.951 83.1262 28.0802 85.1992L-60.1087 182.887C-71.6787 195.703 -62.5707 216.148 -45.2871 216.148Z" stroke="#00498A" stroke-width="0.5" stroke-miterlimit="10"/>
<path d="M-20.2897 198.099L106.088 198.099C118.47 198.099 124.995 183.448 116.708 174.265L53.5371 104.268C52.1963 102.784 50.5581 101.597 48.7287 100.784C46.8993 99.9718 44.9194 99.552 42.9171 99.552C40.9149 99.552 38.935 99.9718 37.1056 100.784C35.2761 101.597 33.638 102.784 32.2972 104.268L-30.8918 174.265C-39.2013 183.448 -32.6714 198.099 -20.2897 198.099Z" stroke="#00498A" stroke-width="0.5" stroke-miterlimit="10"/>
<path d="M423.297 -147.519L146.907 -147.519C119.824 -147.519 105.551 -115.486 123.682 -95.4153L261.866 57.6621C264.798 60.9096 268.38 63.5061 272.381 65.2833C276.382 67.0606 280.712 67.9789 285.091 67.9789C289.47 67.9789 293.8 67.0606 297.801 65.2833C301.802 63.5061 305.384 60.9096 308.316 57.6621L446.504 -95.4154C464.653 -115.486 450.376 -147.519 423.297 -147.519Z" stroke="#00498A" stroke-width="0.5" stroke-miterlimit="10"/>
<path d="M398.293 -129.47L171.919 -129.47C149.734 -129.47 138.021 -103.231 152.892 -86.7806L266.081 38.6017C268.482 41.2616 271.416 43.3883 274.693 44.8439C277.97 46.2996 281.517 47.0518 285.104 47.0518C288.69 47.0518 292.237 46.2996 295.514 44.8439C298.791 43.3883 301.725 41.2616 304.127 38.6017L417.316 -86.7807C432.164 -103.231 420.474 -129.47 398.293 -129.47Z" stroke="#00498A" stroke-width="0.5" stroke-miterlimit="10"/>
<path d="M373.287 -111.421L196.909 -111.421C179.63 -111.421 170.518 -90.9758 182.088 -78.1592L270.277 19.5281C272.147 21.601 274.434 23.2584 276.987 24.3929C279.54 25.5273 282.304 26.1135 285.098 26.1135C287.893 26.1135 290.656 25.5273 293.21 24.3929C295.763 23.2584 298.049 21.601 299.92 19.5281L388.109 -78.1593C399.679 -90.9758 390.571 -111.421 373.287 -111.421Z" stroke="#00498A" stroke-width="0.5" stroke-miterlimit="10"/>
<path d="M348.29 -93.372L221.912 -93.372C209.53 -93.3719 203.005 -78.7206 211.292 -69.5379L274.463 0.45886C275.804 1.94353 277.442 3.13054 279.271 3.94299C281.101 4.75545 283.081 5.17526 285.083 5.17526C287.085 5.17526 289.065 4.75545 290.894 3.94299C292.724 3.13053 294.362 1.94352 295.703 0.458856L358.892 -69.538C367.201 -78.7206 360.671 -93.372 348.29 -93.372Z" stroke="#00498A" stroke-width="0.5" stroke-miterlimit="10"/>
</g>
</svg>
